<svg width="895" height="52" viewBox="0 0 895 52" fill="none" xmlns="http://www.w3.org/2000/svg">
<path d="M887.679 9.18921H884.958C884.483 9.18921 884.099 9.5734 884.099 10.0475C884.099 10.5217 884.483 10.9059 884.958 10.9059H887.679C888.154 10.9059 888.538 10.5217 888.538 10.0475C888.538 9.5734 888.153 9.18921 887.679 9.18921Z" fill="#AE7C78"/>
<path d="M872.407 13.3298C867.607 13.3298 863.702 17.2362 863.702 22.0375C863.702 26.8372 867.607 30.7421 872.407 30.7421C877.208 30.7421 881.114 26.8372 881.114 22.0375C881.114 17.2362 877.208 13.3298 872.407 13.3298ZM872.407 29.0255C868.554 29.0255 865.419 25.8908 865.419 22.0377C865.419 18.1828 868.554 15.0465 872.407 15.0465C876.261 15.0465 879.398 18.1827 879.398 22.0377C879.398 25.8907 876.261 29.0255 872.407 29.0255Z" fill="#AE7C78"/>
<path d="M891.381 4.60615H880.954L879.944 1.81646C879.782 1.36715 879.286 0 877.887 0H864.534C863.135 0 862.64 1.36715 862.477 1.8168L861.467 4.60615H852.977V2.53116C852.977 1.40114 852.058 0.48181 850.928 0.48181H847.104C845.975 0.48181 845.058 1.40114 845.058 2.53116V4.64323C843.516 4.87967 842.332 6.21569 842.332 7.82352V25.3803L838.443 26.1346C836.809 26.4532 835.738 28.0416 836.056 29.6743L839.91 49.5583C840.191 50.9969 841.46 52 842.878 52C843.066 52 843.258 51.9823 843.45 51.9453L851.833 50.3187C852.299 50.2285 852.603 49.778 852.512 49.3126C852.422 48.8473 851.972 48.5429 851.506 48.6335L843.124 50.2598C842.418 50.3961 841.732 49.933 841.595 49.2303L837.741 29.3468C837.604 28.6422 838.066 27.9571 838.771 27.8195L859.675 23.7647C860.014 23.6998 860.36 23.7714 860.65 23.9672C860.94 24.1631 861.135 24.4575 861.2 24.798L865.058 44.678C865.195 45.3826 864.732 46.0677 864.028 46.2052L855.64 47.8318C855.175 47.9221 854.871 48.3726 854.961 48.8379C855.052 49.3032 855.502 49.607 855.967 49.5172L864.355 47.8903C865.99 47.5717 867.061 45.9833 866.742 44.3504L865.699 38.9747H875.28C875.754 38.9747 876.138 38.5905 876.138 38.1163C876.138 37.6422 875.754 37.258 875.28 37.258H865.366L864.462 32.5962C866.733 34.3052 869.517 35.2528 872.406 35.2528C878.134 35.2528 883.022 31.5909 884.853 26.4862H892.879V35.7572C892.879 36.5847 892.207 37.258 891.381 37.258H879.484C879.01 37.258 878.625 37.6422 878.625 38.1163C878.625 38.5905 879.01 38.9747 879.484 38.9747H891.381C893.154 38.9747 894.595 37.5313 894.595 35.7572V7.82352C894.595 6.0494 893.154 4.60615 891.381 4.60615ZM864.091 2.40127C864.255 1.94704 864.405 1.71678 864.534 1.71678H877.887C878.048 1.71678 878.217 2.08906 878.33 2.40092L879.128 4.60615H863.293L864.091 2.40127ZM859.192 22.0377C859.192 22.0617 859.193 22.0857 859.193 22.1096L852.977 23.3155V19.3063H859.477C859.291 20.188 859.192 21.1014 859.192 22.0377ZM846.774 2.53116C846.774 2.3508 846.925 2.19847 847.104 2.19847H850.928C851.111 2.19847 851.26 2.34771 851.26 2.53116V4.60615H846.774V2.53116ZM844.049 7.82352C844.049 6.99609 844.721 6.32281 845.546 6.32281H845.916H851.26V23.6484L848.355 24.212V14.5314C848.355 13.707 847.684 13.0363 846.859 13.0363H844.049V7.82352ZM844.049 14.753H846.638V24.5451L844.049 25.0473V14.753ZM872.407 33.5359C869.175 33.5359 866.095 32.1738 863.918 29.7919L862.886 24.4725C862.734 23.6825 862.281 22.9979 861.611 22.5448C861.391 22.3959 861.156 22.2787 860.911 22.1931C860.911 22.1413 860.909 22.0896 860.909 22.0377C860.909 15.6958 866.067 10.5363 872.406 10.5363C878.748 10.5363 883.908 15.6959 883.908 22.0377C883.908 28.3778 878.748 33.5359 872.407 33.5359ZM892.879 24.7693H885.34C885.526 23.8876 885.624 22.974 885.624 22.0377C885.624 21.1014 885.526 20.188 885.34 19.3063H892.879V24.7693ZM892.879 17.5896H884.854C883.023 12.4829 878.135 8.81964 872.407 8.81964C866.68 8.81964 861.793 12.483 859.963 17.5896H852.977V6.32281H862.07H880.351H891.381C892.207 6.32281 892.879 6.99609 892.879 7.82352V17.5896H892.879Z" fill="#AE7C78"/>
<path d="M862.002 43.462C862.204 43.1611 862.277 42.8087 862.209 42.4722L859.292 27.8132C859.136 27.0466 858.336 26.5781 857.469 26.7448L841.546 29.8329C840.675 30.0013 840.108 30.7378 840.257 31.5173L843.176 46.166C843.24 46.5049 843.441 46.8032 843.74 47.006C844.002 47.1834 844.323 47.2766 844.657 47.2766C844.77 47.2766 844.886 47.2658 845 47.2436L860.919 44.1554C861.371 44.0683 861.765 43.8155 862.002 43.462ZM843.639 39.6604L842.003 31.493L857.669 28.4545L858.619 33.2307L856.611 33.6208C852.78 34.3637 851.508 35.511 850.278 36.6203C849.087 37.6948 847.856 38.8038 843.639 39.6604ZM844.802 45.5335L844.402 43.4708L843.976 41.3432C848.66 40.3896 850.127 39.0685 851.428 37.8951C852.58 36.8558 853.575 35.9581 856.938 35.3061L858.954 34.9144L860.463 42.4954L844.802 45.5335Z" fill="#AE7C78"/>
<g clip-path="url(#clip0)">
<path d="M471.702 13.8987C471.914 13.8987 472.127 13.882 472.34 13.8483C473.4 13.6802 474.331 13.1093 474.962 12.2408L478.789 6.97096C478.944 6.75738 478.978 6.47869 478.878 6.23443C478.778 5.99018 478.558 5.81519 478.298 5.77192C478.23 5.76065 476.729 5.51415 474.896 5.49384C474.309 3.75774 473.612 2.40706 473.579 2.3449C473.458 2.1106 473.223 1.95602 472.96 1.93642C472.697 1.91631 472.442 2.03473 472.287 2.24842L468.46 7.51828C467.829 8.38674 467.574 9.44878 467.742 10.5089C467.867 11.2939 468.212 12.0077 468.736 12.5817C468.157 13.2702 467.136 14.523 466.018 16.0822V15.4162C466.018 14.9955 465.677 14.6545 465.256 14.6545C464.836 14.6545 464.495 14.9955 464.495 15.4162V18.3265C463.883 19.2835 463.288 20.2952 462.762 21.3223V17.0447C462.762 17.0446 462.762 17.0444 462.762 17.0442V15.7317L464.981 13.5124C465.278 13.2149 465.278 12.7326 464.981 12.4352C464.683 12.1377 464.201 12.1377 463.904 12.4352L462.761 13.5773V11.2197C464.614 10.8626 466.018 9.23001 466.018 7.27484V0.761749C466.018 0.497789 465.881 0.252618 465.657 0.113782C465.432 -0.0250537 465.152 -0.0376475 464.915 0.0804695C464.854 0.111243 463.496 0.794452 462 1.85466C460.505 0.794859 459.146 0.111751 459.084 0.0804695C458.848 -0.0376475 458.567 -0.0249522 458.343 0.113782C458.118 0.252618 457.981 0.497789 457.981 0.761749V7.27484C457.981 9.23001 459.385 10.8627 461.238 11.2197V15.2055L459.282 13.2493C458.984 12.9519 458.502 12.9519 458.205 13.2493C457.907 13.5468 457.907 14.0291 458.205 14.3265L461.238 17.36V21.3223C459.295 17.5318 456.413 13.9469 455.264 12.5817C455.787 12.0077 456.133 11.2939 456.257 10.5089C456.425 9.44878 456.171 8.38674 455.54 7.51828L451.712 2.24842C451.557 2.03473 451.302 1.91641 451.039 1.93642C450.776 1.95602 450.542 2.1106 450.42 2.3449C450.388 2.40706 449.69 3.75784 449.103 5.49394C447.271 5.51446 445.769 5.76065 445.702 5.77192C445.441 5.81519 445.222 5.99018 445.121 6.23443C445.021 6.47869 445.055 6.75738 445.21 6.97096L449.037 12.2408C449.668 13.1093 450.599 13.6801 451.659 13.8483C451.872 13.8821 452.085 13.8987 452.297 13.8987C452.903 13.8987 453.496 13.7612 454.04 13.4964C454.275 13.7765 454.6 14.1701 454.985 14.6546H454.316C453.896 14.6546 453.555 14.9956 453.555 15.4163C453.555 15.8369 453.896 16.178 454.316 16.178H456.156C457.269 17.6745 458.559 19.5576 459.608 21.5004C458.369 20.2829 456.992 19.1905 455.488 18.2337C450.927 15.3309 446.817 14.6889 446.644 14.663C446.425 14.6302 446.202 14.6945 446.034 14.8391C445.866 14.9838 445.769 15.1946 445.769 15.4163C445.769 15.538 445.786 18.4449 447.239 22.492C448.551 26.1465 451.337 31.4532 457.167 36.1351V38.9264L453.936 51.042C453.875 51.2706 453.924 51.5147 454.068 51.7024C454.213 51.89 454.436 52 454.672 52H469.327C469.563 52 469.787 51.89 469.931 51.7024C470.075 51.5147 470.124 51.2707 470.063 51.042L466.832 38.9264V36.1351C472.662 31.4532 475.448 26.1465 476.76 22.492C478.213 18.4449 478.23 15.538 478.23 15.4163C478.23 15.1946 478.133 14.9838 477.965 14.8391C477.797 14.6944 477.575 14.63 477.355 14.663C477.254 14.6781 474.848 15.0503 471.679 16.5087C469.603 17.4642 466.908 19.0373 464.385 21.5132C465.435 19.5663 466.728 17.6781 467.844 16.178H469.683C470.104 16.178 470.445 15.8369 470.445 15.4163C470.445 14.9956 470.104 14.6546 469.683 14.6546H469.015C469.399 14.1702 469.724 13.7766 469.959 13.4965C470.503 13.7612 471.096 13.8987 471.702 13.8987ZM476.797 7.12219L475.647 8.70585C475.592 8.18453 475.494 7.62635 475.347 7.02855C475.883 7.04683 476.38 7.08289 476.797 7.12219ZM448.353 8.70585L447.202 7.12189C447.619 7.08258 448.115 7.04673 448.653 7.02865C448.506 7.62645 448.407 8.18453 448.353 8.70585ZM453.755 11.8982C453.215 12.2898 452.556 12.448 451.898 12.3436C451.24 12.2392 450.662 11.8849 450.27 11.3457C449.178 9.84172 450.336 6.28765 451.238 4.18826L454.307 8.41345C455.115 9.52647 454.868 11.0897 453.755 11.8982ZM464.494 2.05494V4.0091C464.145 3.62022 463.735 3.22738 463.266 2.83118C463.711 2.53076 464.134 2.26802 464.494 2.05494ZM459.505 7.27484V2.05281C461.469 3.22139 464.494 5.41605 464.494 7.27484C464.494 8.6505 463.375 9.76962 462 9.76962C460.624 9.76962 459.505 8.6505 459.505 7.27484ZM448.696 22.0425C447.795 19.5519 447.472 17.4989 447.357 16.3672C448.777 16.7132 451.631 17.5847 454.67 19.519C457.189 21.1214 459.327 23.1267 461.026 25.4793C462.991 28.2009 464.373 31.4034 465.142 35.0079H463.368C462.394 30.7348 460.477 27.0974 457.663 24.1897C457.37 23.8874 456.888 23.8795 456.585 24.1722C456.283 24.4647 456.275 24.947 456.568 25.2492C459.111 27.8767 460.868 31.1568 461.802 35.0079H458.197C452.617 30.5533 449.951 25.5089 448.696 22.0425ZM465.309 36.5313V38.2644H458.691V36.5313H465.309ZM468.335 50.4765H465.109L464.98 49.5095C464.925 49.0926 464.541 48.7994 464.124 48.8552C463.707 48.9107 463.414 49.2938 463.47 49.7108L463.572 50.4764H455.664L458.514 39.7878H462.147L463.036 46.4542C463.087 46.8371 463.414 47.1154 463.79 47.1154C463.823 47.1154 463.857 47.1132 463.891 47.1086C464.308 47.053 464.601 46.6699 464.546 46.2529L463.684 39.7878H465.485L468.335 50.4765ZM472.268 17.9149C474.109 17.0628 475.694 16.5989 476.642 16.3677C476.527 17.4998 476.204 19.5524 475.303 22.0425C474.107 25.3475 471.628 30.0873 466.564 34.3824C465.831 31.1082 464.609 28.1478 462.921 25.5537C465.849 21.468 469.603 19.1481 472.268 17.9149ZM469.692 8.41345L472.761 4.18755C473.664 6.28593 474.824 9.83878 473.729 11.3457C473.338 11.8849 472.76 12.2392 472.102 12.3436C471.443 12.4479 470.784 12.2898 470.245 11.8982C469.132 11.0897 468.884 9.52658 469.692 8.41345Z" fill="#AE7C78"/>
<path d="M455.133 21.9564C454.594 21.5509 454.028 21.1633 453.449 20.8045C453.091 20.5828 452.622 20.6931 452.4 21.0507C452.179 21.4083 452.289 21.8778 452.646 22.0994C453.186 22.434 453.714 22.7954 454.216 23.1732C454.354 23.2766 454.514 23.3266 454.674 23.3266C454.905 23.3266 455.133 23.2219 455.283 23.0231C455.536 22.687 455.469 22.2095 455.133 21.9564Z" fill="#AE7C78"/>
</g>
<path d="M80.6664 24.0056C79.8139 22.987 78.651 22.3251 77.3179 22.0776L76.6917 13.5574C77.3094 13.5515 77.8362 13.1054 77.9438 12.4942L78.1853 11.1213C78.4441 9.64958 78.0831 8.19685 77.1947 7.13571C76.3075 6.0757 75.0084 5.49175 73.5368 5.49175H64.1109L64.5698 2.88347C64.7 2.14266 64.5113 1.40296 64.0523 0.854493C63.5978 0.311484 62.9144 0 62.1773 0H15.7792C14.4072 0 13.1442 1.07012 12.9038 2.43664L8.79883 25.7766C8.67583 26.4766 9.14205 27.1442 9.84033 27.2675C9.9156 27.2809 9.99055 27.2873 10.0647 27.2873C10.676 27.2873 11.2178 26.8478 11.3275 26.2234L15.4327 2.88347C15.4597 2.72982 15.657 2.57408 15.7791 2.57408L62.0166 2.57424L57.9356 25.7766C57.8124 26.4766 58.2787 27.1442 58.9771 27.2675C59.6746 27.3907 60.3413 26.9235 60.4643 26.2234L60.7603 24.5409H76.1138C76.1143 24.5409 76.115 24.5409 76.1156 24.5409C76.1162 24.5409 76.1169 24.5409 76.1174 24.5409C77.1786 24.5411 78.0954 24.9385 78.6994 25.6599C79.115 26.1565 79.3575 26.7746 79.4158 27.4584H75.151C74.5278 27.4584 73.9948 27.9069 73.8865 28.5221L73.4037 31.268C73.2091 32.3743 73.4839 33.4704 74.1575 34.2753C74.8219 35.0692 75.8304 35.5244 76.9241 35.5244H78.1329L77.1368 41.1878H73.747C73.5239 40.0551 73.0356 39.0132 72.2955 38.1293C70.9824 36.5602 69.05 35.6962 66.8547 35.6962C63.3346 35.6962 59.9385 38.0051 58.3486 41.188H57.8325L59.4986 31.7152C59.6216 31.0151 59.1555 30.3475 58.4571 30.2242C57.7591 30.1006 57.0929 30.5681 56.9699 31.2683L55.2251 41.1881H31.4576C31.2345 40.0554 30.7462 39.0137 30.0061 38.1297C28.6928 36.5605 26.7605 35.6965 24.5651 35.6965C21.045 35.6965 17.6489 38.0054 16.059 41.1883L8.69537 41.1881L9.20851 38.2708H14.9788C15.6878 38.2708 16.2628 37.6945 16.2628 36.9836C16.2628 36.2728 15.688 35.6964 14.9788 35.6964H1.28397C0.574961 35.6964 0 36.2726 0 36.9836C0 37.6944 0.574801 38.2708 1.28397 38.2708H6.60133L6.14248 40.8791C6.01227 41.6199 6.20093 42.3596 6.65994 42.908C7.11447 43.451 7.79785 43.7625 8.53489 43.7625H15.2253C14.8772 45.946 15.4003 48.0029 16.7096 49.5669C18.0229 51.136 19.9552 52 22.1506 52C26.5203 52 30.7009 48.4435 31.4698 44.0716C31.4879 43.968 31.5021 43.8651 31.5165 43.7624H57.5149C57.1667 45.9456 57.6898 48.0026 58.9992 49.5667C60.3125 51.1359 62.2448 51.9998 64.4402 51.9998C68.8099 51.9998 72.9905 48.4433 73.7594 44.0714C73.7775 43.9679 73.7917 43.865 73.8061 43.7622H78.2144C78.8376 43.7622 79.3706 43.3138 79.4789 42.6985L81.8937 28.9691C82.2214 27.1055 81.7856 25.3428 80.6664 24.0056ZM61.2134 21.9672L62.6924 13.5579H74.1173L74.7354 21.9672H61.2134ZM75.6564 10.6744L75.602 10.9837H63.145L63.6582 8.06615H73.5368C74.2362 8.06615 74.8367 8.32337 75.2275 8.79043C75.6327 9.27435 75.7852 9.94324 75.6564 10.6744ZM28.9411 43.6249C28.3786 46.8237 25.3323 49.4259 22.1506 49.4259C20.7274 49.4259 19.4936 48.8884 18.6766 47.9125C17.8361 46.9082 17.5158 45.5444 17.7748 44.0721C18.3374 40.8733 21.3836 38.2711 24.5653 38.2711C25.9884 38.2711 27.2223 38.8087 28.0392 39.7847C28.8797 40.7887 29.2 42.1526 28.9411 43.6249ZM71.2305 43.6249C70.6679 46.8237 67.6217 49.4259 64.44 49.4259C63.0169 49.4259 61.783 48.8884 60.9661 47.9123C60.1256 46.908 59.8053 45.5443 60.0642 44.0719C60.6267 40.8731 63.673 38.2709 66.8547 38.2709C68.2777 38.2709 69.5117 38.8085 70.3287 39.7845C71.1692 40.7887 71.4895 42.1526 71.2305 43.6249ZM78.5857 32.9508H76.9241V32.9507C76.5815 32.9507 76.3051 32.8367 76.1246 32.6212C75.9373 32.3974 75.869 32.0758 75.9324 31.7156L76.2283 30.0335H79.0988L78.5857 32.9508Z" fill="#AE7C78"/>
<path d="M25.4748 42.0427C25.0202 41.4997 24.3368 41.1882 23.5996 41.1882C22.2276 41.1882 20.9646 42.2584 20.7242 43.6249C20.594 44.3657 20.7827 45.1054 21.2417 45.6539C21.6962 46.1969 22.3796 46.5083 23.1166 46.5083C24.4887 46.5083 25.7517 45.4381 25.9921 44.0719C26.1224 43.3309 25.9339 42.5914 25.4748 42.0427Z" fill="#AE7C78"/>
<path d="M67.7637 42.0427C67.309 41.4997 66.6256 41.1882 65.8888 41.1882C64.5167 41.1882 63.2537 42.2584 63.0135 43.6247C62.8833 44.3657 63.0716 45.1052 63.5308 45.6539C63.9853 46.1969 64.6687 46.5083 65.4057 46.5083C66.7778 46.5083 68.0408 45.4381 68.2812 44.0719C68.4116 43.3309 68.2229 42.5914 67.7637 42.0427Z" fill="#AE7C78"/>
<path d="M51.7904 35.6965H35.5212C34.8122 35.6965 34.2372 36.2728 34.2372 36.9837C34.2372 37.6945 34.812 38.2709 35.5212 38.2709H51.7904C52.4994 38.2709 53.0744 37.6947 53.0744 36.9837C53.0742 36.2728 52.4994 35.6965 51.7904 35.6965Z" fill="#AE7C78"/>
<path d="M28.6739 30.2048H4.98899C4.27998 30.2048 3.70502 30.7811 3.70502 31.492C3.70502 32.2028 4.27966 32.7792 4.98899 32.7792H28.6739C29.3829 32.7792 29.9578 32.203 29.9578 31.492C29.9578 30.7811 29.383 30.2048 28.6739 30.2048Z" fill="#AE7C78"/>
<path d="M53.1922 25.0263L48.4387 20.9075C47.9022 20.4429 47.0915 20.5018 46.6277 21.0397C46.1639 21.5775 46.223 22.3903 46.7595 22.8553L48.9036 24.7132H16.3482C15.6392 24.7132 15.0642 25.2895 15.0642 26.0004C15.0642 26.7112 15.639 27.2876 16.3482 27.2876H48.0894L45.4412 29.0464C44.8499 29.4388 44.6883 30.2376 45.0799 30.8302C45.3269 31.2042 45.7353 31.4066 46.1514 31.4066C46.3948 31.4066 46.6411 31.3373 46.8593 31.1923L53.0616 27.0735C53.3967 26.8513 53.6082 26.4845 53.6339 26.0825C53.6595 25.6803 53.4961 25.2895 53.1922 25.0263Z" fill="#AE7C78"/>
<defs>
<clipPath id="clip0">
<rect width="52" height="52" fill="white" transform="translate(436)"/>
</clipPath>
</defs>
</svg>
