<svg width="989" height="53" viewBox="0 0 989 53" fill="none" xmlns="http://www.w3.org/2000/svg">
<path d="M54.6833 40.4846H58.8546C59.3892 40.4846 59.8226 40.0514 59.8226 39.5167V6.13934C59.8226 5.60462 59.3892 5.17136 58.8546 5.17136H7.22634C6.69176 5.17136 6.25836 5.60462 6.25836 6.13934V39.5167C6.25836 40.0514 6.69176 40.4846 7.22634 40.4846H50.1531C50.6877 40.4846 51.1211 40.0514 51.1211 39.5167C51.1211 38.9819 50.6877 38.5487 50.1531 38.5487H8.19433V7.10732H57.8867V38.5487H54.6833C54.1487 38.5487 53.7153 38.9819 53.7153 39.5167C53.7153 40.0514 54.1487 40.4846 54.6833 40.4846Z" fill="#AE7C78"/>
<path d="M65.1129 42.72H63.9952V4.57508C63.9952 2.60375 62.3908 1 60.4189 1H15.538C15.0035 1 14.5701 1.43327 14.5701 1.96798C14.5701 2.5027 15.0035 2.93596 15.538 2.93596H60.4189C61.3233 2.93596 62.0593 3.67124 62.0593 4.57508V42.72H4.02164V4.57508C4.02164 3.67124 4.75757 2.93596 5.66205 2.93596H11.0131C11.5476 2.93596 11.981 2.5027 11.981 1.96798C11.981 1.43327 11.5476 1 11.0131 1H5.66205C3.69008 1 2.08568 2.60375 2.08568 4.57508V42.72H0.967982C0.433398 42.72 0 43.1533 0 43.688V48.9035C0 51.1624 1.83775 53 4.0965 53H8.84736C9.38194 53 9.81534 52.5667 9.81534 52.032C9.81534 51.4973 9.38194 51.064 8.84736 51.064H4.0965C2.90524 51.064 1.93596 50.0948 1.93596 48.9035V44.656H25.8099L26.3296 46.3192C26.7986 47.8199 28.1701 48.8281 29.7423 48.8281H36.3383C37.9106 48.8281 39.282 47.8199 39.751 46.3192L40.2708 44.656H64.1449V48.9035C64.1449 50.0948 63.1757 51.064 61.9844 51.064H13.3775C12.8429 51.064 12.4095 51.4973 12.4095 52.032C12.4095 52.5667 12.8429 53 13.3775 53H61.9844C64.2432 53 66.0809 51.1624 66.0809 48.9035V43.688C66.0809 43.1533 65.6475 42.72 65.1129 42.72ZM37.9033 45.7417C37.6883 46.4299 37.0594 46.8922 36.3384 46.8922H29.7425C29.0215 46.8922 28.3926 46.4299 28.1776 45.7417L27.8383 44.656H38.2426L37.9033 45.7417Z" fill="#AE7C78"/>
<path d="M24.3053 24.3175C24.7667 24.3175 25.164 23.9919 25.2545 23.5394L26.4279 17.6724C26.4847 17.3881 26.4111 17.0932 26.2274 16.8689C26.0434 16.6447 25.7688 16.5146 25.4788 16.5146H18.0473C17.5127 16.5146 17.0793 16.9478 17.0793 17.4826C17.0793 18.0173 17.5127 18.4505 18.0473 18.4505H24.298L23.5117 22.3816H15.9856L14.6969 15.3523C14.6126 14.8926 14.2121 14.559 13.7448 14.559H11.3981C10.8635 14.559 10.4301 14.9923 10.4301 15.527C10.4301 16.0617 10.8635 16.495 11.3981 16.495H12.9383L14.2111 23.4376V27.5217C14.2111 28.0564 14.6445 28.4897 15.1791 28.4897H15.2244C15.1958 28.5969 15.1791 28.7091 15.1791 28.8254C15.1791 29.5454 15.7628 30.1292 16.4829 30.1292C17.0736 30.1292 17.5718 29.7362 17.7321 29.1975C17.7702 29.075 17.7907 28.9448 17.7907 28.8098C17.7907 28.6991 17.7755 28.5923 17.7495 28.4897H19.9179C19.913 28.509 19.9071 28.5281 19.9031 28.5479C19.8836 28.6375 19.8727 28.7301 19.8727 28.8255C19.8727 29.5455 20.4565 30.1293 21.1766 30.1293C21.8073 30.1293 22.3334 29.6813 22.4542 29.0862C22.4734 28.9972 22.4841 28.9047 22.4841 28.8099C22.4841 28.6993 22.4689 28.5924 22.4429 28.4898H22.7411C23.2757 28.4898 23.7091 28.0565 23.7091 27.5218C23.7091 26.9871 23.2757 26.5538 22.7411 26.5538H16.1472V24.3178H24.3053V24.3175Z" fill="#AE7C78"/>
<path d="M37.3983 12.3977C37.3983 11.863 36.9649 11.4297 36.4303 11.4297H32.2583C31.7237 11.4297 31.2903 11.863 31.2903 12.3977V16.5698C31.2903 17.1046 31.7237 17.5378 32.2583 17.5378H36.4303C36.9649 17.5378 37.3983 17.1046 37.3983 16.5698V12.3977ZM35.4623 15.6019H33.2262V13.3658H35.4623V15.6019Z" fill="#AE7C78"/>
<path d="M40.6022 17.5378H49.4677C50.0023 17.5378 50.4357 17.1046 50.4357 16.5699C50.4357 16.0353 50.0023 15.6021 49.4677 15.6021H40.6022C40.0676 15.6021 39.6342 16.0353 39.6342 16.5699C39.6342 17.1046 40.0676 17.5378 40.6022 17.5378Z" fill="#AE7C78"/>
<path d="M40.6022 13.3658H54.6829C55.2174 13.3658 55.6508 12.9325 55.6508 12.3978C55.6508 11.8631 55.2174 11.4298 54.6829 11.4298H40.6022C40.0676 11.4298 39.6342 11.8631 39.6342 12.3978C39.6342 12.9325 40.0676 13.3658 40.6022 13.3658Z" fill="#AE7C78"/>
<path d="M37.3983 20.7419C37.3983 20.2072 36.9649 19.774 36.4303 19.774H32.2583C31.7237 19.774 31.2903 20.2072 31.2903 20.7419V24.9139C31.2903 25.4487 31.7237 25.8819 32.2583 25.8819H36.4303C36.9649 25.8819 37.3983 25.4487 37.3983 24.9139V20.7419ZM35.4623 23.946H33.2262V21.7099H35.4623V23.946Z" fill="#AE7C78"/>
<path d="M40.6022 25.8818H49.4677C50.0023 25.8818 50.4357 25.4486 50.4357 24.9139C50.4357 24.3793 50.0023 23.946 49.4677 23.946H40.6022C40.0676 23.946 39.6342 24.3793 39.6342 24.9139C39.6342 25.4486 40.0676 25.8818 40.6022 25.8818Z" fill="#AE7C78"/>
<path d="M40.6022 21.7099H54.6829C55.2174 21.7099 55.6508 21.2767 55.6508 20.7419C55.6508 20.2072 55.2174 19.774 54.6829 19.774H40.6022C40.0676 19.774 39.6342 20.2072 39.6342 20.7419C39.6342 21.2767 40.0676 21.7099 40.6022 21.7099Z" fill="#AE7C78"/>
<path d="M36.4303 28.1181H32.2583C31.7237 28.1181 31.2903 28.5514 31.2903 29.0861V33.2581C31.2903 33.7928 31.7237 34.2261 32.2583 34.2261H36.4303C36.9649 34.2261 37.3983 33.7928 37.3983 33.2581V29.0861C37.3983 28.5515 36.9649 28.1181 36.4303 28.1181ZM35.4623 32.2901H33.2262V30.0541H35.4623V32.2901Z" fill="#AE7C78"/>
<path d="M40.6022 32.2901C40.0676 32.2901 39.6342 32.7233 39.6342 33.2581C39.6342 33.7928 40.0676 34.226 40.6022 34.226H49.4678C50.0023 34.226 50.4357 33.7928 50.4357 33.2581C50.4357 32.7233 50.0023 32.2901 49.4678 32.2901H40.6022Z" fill="#AE7C78"/>
<path d="M55.6508 29.0861C55.6508 28.5514 55.2174 28.1182 54.6828 28.1182H40.6022C40.0676 28.1182 39.6342 28.5514 39.6342 29.0861C39.6342 29.6207 40.0676 30.054 40.6022 30.054H54.6828C55.2174 30.054 55.6508 29.6207 55.6508 29.0861Z" fill="#AE7C78"/>
<path d="M354.216 37.2539C353.531 33.8206 350.31 33.2362 350.3 33.2315V33.2316C350.265 33.2214 350.595 33.3042 342.445 31.2839V31.0074H348.444C349.681 31.0074 350.687 30.0012 350.687 28.7646V17.3219C350.788 16.8964 350.788 16.4541 350.687 16.0278V11.8516C350.687 11.4307 350.346 11.0898 349.925 11.0898C349.505 11.0898 349.164 11.4307 349.164 11.8516V14.0379C348.761 13.7979 348.302 13.6257 347.807 13.5405C347.628 12.7466 346.969 12.1189 346.133 12.0091C345.261 11.8946 344.601 11.3864 344.169 10.499C343.968 10.0835 343.572 9.8106 343.112 9.76875C342.652 9.72711 342.216 9.92384 341.943 10.2954C340.633 12.0776 336.993 16.075 330.706 16.0748C330.228 16.0748 329.904 16.0521 329.791 16.0471C328.636 15.9775 327.659 16.9005 327.659 18.058V19.8084C327.659 22.6062 328.82 25.3185 330.843 27.2498C331.514 27.8904 332.255 28.4247 333.044 28.8508V29.4839H327.072C326.675 29.4839 326.352 29.1613 326.352 28.7648V11.6463C326.352 6.09665 330.877 1.52368 336.343 1.52368C336.361 1.52368 336.379 1.52378 336.396 1.52388C338.354 1.53434 340.616 2.0906 342.156 2.94058C343.133 3.47958 343.736 3.05118 344.7 3.05118C347.054 3.05118 348.94 5.47143 349.166 7.64822C349.168 7.68011 349.171 7.80778 349.172 8.2969C349.172 9.03232 350.003 9.08879 349.934 9.05812C350.355 9.05781 350.696 8.71636 350.695 8.29569C350.695 8.1604 350.696 7.62994 350.684 7.50685C350.377 4.47652 347.792 1.52754 344.701 1.52754C343.493 1.52754 343.305 1.83365 342.893 1.60655C341.145 0.642622 338.599 0.0120182 336.404 0.000236869C330.08 -0.040693 324.829 5.22808 324.829 11.6462V28.7647C324.829 30.0014 325.835 31.0075 327.072 31.0075H333.044V31.284L325.22 33.2232C325.21 33.2257 325.199 33.2287 325.189 33.2316L324.618 33.4002C324.6 33.4053 324.583 33.4109 324.567 33.417C323.547 33.7977 321.762 34.8023 321.273 37.2543C318.954 48.9017 319.052 48.4044 319.046 48.4443C318.767 50.4198 319.756 52 322.134 52H330.373C330.794 52 331.135 51.659 331.135 51.2382C331.135 50.8173 330.794 50.4764 330.373 50.4764H327.506V43.2908C327.506 42.8699 327.165 42.529 326.744 42.529C326.323 42.529 325.982 42.87 325.982 43.2908V50.4764H322.134C321.123 50.4764 320.535 50.1505 320.525 49.0875C320.521 48.5689 320.5 49.0744 322.767 37.5522C323.108 35.8436 324.349 35.1299 325.076 34.8536L325.604 34.6978L330.097 33.5841C335.095 39.4723 334.799 39.1603 335.088 39.4421C336.756 41.0694 339.137 40.9545 340.704 39.1146L345.409 33.5883L349.885 34.6977C350.014 34.7572 352.242 35.1491 352.722 37.5519C354.969 48.9743 354.968 48.5665 354.964 49.0869C354.956 50.1281 354.393 50.4765 353.354 50.4765H349.534V43.2908C349.534 42.8699 349.193 42.529 348.772 42.529C348.351 42.529 348.01 42.87 348.01 43.2908V50.4764H333.928C333.507 50.4764 333.166 50.8174 333.166 51.2382C333.166 51.6591 333.507 52 333.928 52H353.354C355.237 52 356.47 50.9644 356.487 49.0991C356.494 48.228 356.442 48.6442 354.216 37.2539ZM347.857 15.1122C348.493 15.3014 348.984 15.7206 349.164 16.2384V17.1112C348.984 17.6291 348.493 18.0484 347.857 18.2375V15.1122ZM347.857 19.9411V19.8004C348.333 19.7125 348.775 19.5439 349.164 19.3118V28.7647C349.164 29.1613 348.841 29.4837 348.445 29.4837H342.445V28.895C345.675 27.2063 347.857 23.8252 347.857 19.9411ZM331.895 26.1475C330.171 24.5021 329.183 22.1916 329.183 19.8082C329.228 18.1495 329.073 17.9485 329.338 17.6993C329.431 17.6109 329.558 17.5596 329.699 17.5678C335.162 17.8966 339.86 15.4953 342.962 11.4746C343.798 12.9432 345.025 13.4004 345.934 13.52C346.162 13.5498 346.333 13.7438 346.333 13.9714C346.333 16.079 346.333 17.8488 346.333 19.9412C346.333 27.5214 337.258 31.2662 331.895 26.1475ZM339.543 38.1268C338.482 39.3737 336.996 39.3704 335.937 38.1205L334.348 36.2444H341.146L339.543 38.1268ZM342.443 34.7206H333.057L331.748 33.1752L333.989 32.6195C334.329 32.5353 334.568 32.2227 334.568 31.8725L334.568 29.5156C336.664 30.2144 338.878 30.2068 340.921 29.5373C340.935 31.9723 340.888 31.9166 340.963 32.1314C341.047 32.3688 341.244 32.5562 341.499 32.6194L343.756 33.1787L342.443 34.7206Z" fill="#AE7C78"/>
<path d="M630.002 14.733H618.245C616.827 14.733 615.674 15.8865 615.674 17.3043V26.5864C615.674 28.0042 616.827 29.1577 618.245 29.1577H630.002C631.42 29.1577 632.573 28.0042 632.573 26.5864V17.3043C632.573 15.8865 631.42 14.733 630.002 14.733ZM630.525 17.3043V20.921H625.148V16.7815H630.002C630.29 16.7817 630.525 17.0162 630.525 17.3043ZM617.722 26.5864V17.3043C617.722 17.0162 617.957 16.7817 618.245 16.7817H623.099V27.1091H618.245C617.957 27.1091 617.722 26.8746 617.722 26.5864ZM630.002 27.1091H625.148V22.9697H630.525V26.5863C630.525 26.8746 630.29 27.1091 630.002 27.1091Z" fill="#AE7C78"/>
<path d="M615.674 40.9919C615.674 41.5577 616.132 42.0162 616.698 42.0162H646.841C647.406 42.0162 647.865 41.5577 647.865 40.9919C647.865 40.426 647.406 39.9676 646.841 39.9676H616.698C616.132 39.9676 615.674 40.426 615.674 40.9919Z" fill="#AE7C78"/>
<path d="M616.698 43.8689C616.132 43.8689 615.674 44.3274 615.674 44.8933C615.674 45.4592 616.132 45.9177 616.698 45.9177H631.769C632.335 45.9177 632.794 45.4592 632.794 44.8933C632.794 44.3274 632.335 43.8689 631.769 43.8689H616.698Z" fill="#AE7C78"/>
<path d="M634.889 36.105V33.6286C634.889 33.0627 634.43 32.6042 633.865 32.6042C633.299 32.6042 632.84 33.0627 632.84 33.6286V36.105C632.84 36.6708 633.299 37.1293 633.865 37.1293C634.43 37.1293 634.889 36.6708 634.889 36.105Z" fill="#AE7C78"/>
<path d="M639.571 36.105V33.6286C639.571 33.0627 639.112 32.6042 638.547 32.6042C637.981 32.6042 637.522 33.0627 637.522 33.6286V36.105C637.522 36.6708 637.981 37.1293 638.547 37.1293C639.112 37.1293 639.571 36.6708 639.571 36.105Z" fill="#AE7C78"/>
<path d="M644.253 36.105V33.6286C644.253 33.0627 643.794 32.6042 643.229 32.6042C642.663 32.6042 642.204 33.0627 642.204 33.6286V36.105C642.204 36.6708 642.663 37.1293 643.229 37.1293C643.794 37.1293 644.253 36.6708 644.253 36.105Z" fill="#AE7C78"/>
<path d="M648.935 36.105V33.6286C648.935 33.0627 648.476 32.6042 647.91 32.6042C647.345 32.6042 646.886 33.0627 646.886 33.6286V36.105C646.886 36.6708 647.345 37.1293 647.91 37.1293C648.476 37.1293 648.935 36.6708 648.935 36.105Z" fill="#AE7C78"/>
<path d="M654.689 33.6286V36.105C654.689 36.6708 655.148 37.1293 655.713 37.1293C656.279 37.1293 656.738 36.6708 656.738 36.105V33.6286C656.738 33.0627 656.279 32.6042 655.713 32.6042C655.148 32.6042 654.689 33.0629 654.689 33.6286Z" fill="#AE7C78"/>
<path d="M659.371 33.6286V36.105C659.371 36.6708 659.83 37.1293 660.395 37.1293C660.961 37.1293 661.42 36.6708 661.42 36.105V33.6286C661.42 33.0627 660.961 32.6042 660.395 32.6042C659.83 32.6042 659.371 33.0629 659.371 33.6286Z" fill="#AE7C78"/>
<path d="M664.053 33.6286V36.105C664.053 36.6708 664.512 37.1293 665.077 37.1293C665.643 37.1293 666.102 36.6708 666.102 36.105V33.6286C666.102 33.0627 665.643 32.6042 665.077 32.6042C664.512 32.6042 664.053 33.0629 664.053 33.6286Z" fill="#AE7C78"/>
<path d="M616.698 37.1293C617.264 37.1293 617.722 36.6708 617.722 36.105V33.6286C617.722 33.0627 617.264 32.6042 616.698 32.6042C616.132 32.6042 615.674 33.0627 615.674 33.6286V36.105C615.674 36.6708 616.132 37.1293 616.698 37.1293Z" fill="#AE7C78"/>
<path d="M622.404 36.105V33.6286C622.404 33.0627 621.945 32.6042 621.38 32.6042C620.814 32.6042 620.355 33.0627 620.355 33.6286V36.105C620.355 36.6708 620.814 37.1293 621.38 37.1293C621.945 37.1293 622.404 36.6708 622.404 36.105Z" fill="#AE7C78"/>
<path d="M627.086 36.105V33.6286C627.086 33.0627 626.627 32.6042 626.062 32.6042C625.496 32.6042 625.037 33.0627 625.037 33.6286V36.105C625.037 36.6708 625.496 37.1293 626.062 37.1293C626.627 37.1293 627.086 36.6708 627.086 36.105Z" fill="#AE7C78"/>
<path d="M677.928 10.4064C677.928 4.66822 673.259 0 667.521 0C662.382 0 658.103 3.74605 657.266 8.65055H630.761C630.195 8.65055 629.736 9.10904 629.736 9.67488C629.736 10.2407 630.195 10.6992 630.761 10.6992H657.119C657.276 16.3384 661.93 20.8106 667.517 20.8127C667.519 20.8127 667.52 20.8128 667.521 20.8128C667.523 20.8128 667.521 20.8128 667.521 20.8128C667.522 20.8128 667.523 20.8127 667.525 20.8127C669.021 20.8121 670.472 20.483 671.727 19.9278V37.1539C671.727 37.7197 672.185 38.1782 672.751 38.1782C673.317 38.1782 673.775 37.7197 673.775 37.1539V18.7177C676.295 16.8168 677.928 13.7988 677.928 10.4064ZM667.521 2.04866C672.13 2.04866 675.879 5.79799 675.879 10.4064C675.879 15.0237 672.119 18.764 667.521 18.764C662.823 18.764 658.98 14.8531 659.172 10.0678C659.387 5.46515 663.146 2.04866 667.521 2.04866Z" fill="#AE7C78"/>
<path d="M664.688 14.3487C665.034 14.9106 665.816 15.0029 666.284 14.5351L672.909 7.90961C673.309 7.50944 673.309 6.86097 672.909 6.46093C672.509 6.06104 671.86 6.06104 671.461 6.46093L665.751 12.1707L663.542 8.59072C663.245 8.10929 662.613 7.96001 662.132 8.25692C661.651 8.55412 661.501 9.18524 661.798 9.66654L664.688 14.3487Z" fill="#AE7C78"/>
<path d="M672.751 40.9097C672.185 40.9097 671.726 41.3682 671.726 41.934V46.1586C671.726 48.25 670.025 49.9515 667.933 49.9515H613.842C611.75 49.9515 610.049 48.25 610.049 46.1586V14.4923C610.049 12.4009 611.75 10.6993 613.842 10.6993H625.98C626.546 10.6993 627.005 10.2408 627.005 9.67496C627.005 9.10912 626.546 8.65063 625.98 8.65063H613.842C610.621 8.65063 608 11.2711 608 14.4923V46.1585C608 49.3795 610.621 52 613.842 52H667.933C671.155 52 673.775 49.3794 673.775 46.1585V41.9339C673.775 41.3682 673.317 40.9097 672.751 40.9097Z" fill="#AE7C78"/>
<path d="M667.341 27.5829V24.5548C667.341 23.6866 666.634 22.9801 665.766 22.9801H655.305C654.437 22.9801 653.731 23.6866 653.731 24.5548V27.5829C653.731 28.4512 654.437 29.1577 655.305 29.1577H665.766C666.634 29.1577 667.341 28.4512 667.341 27.5829ZM665.292 27.1091H655.779V25.0287H665.292V27.1091Z" fill="#AE7C78"/>
<path d="M986.869 24.0056C986.014 22.987 984.849 22.3251 983.512 22.0776L982.884 13.5574C983.504 13.5515 984.032 13.1054 984.14 12.4942L984.382 11.1213C984.641 9.64958 984.279 8.19685 983.389 7.13571C982.499 6.0757 981.197 5.49175 979.722 5.49175H970.272L970.732 2.88347C970.863 2.14266 970.673 1.40296 970.213 0.854493C969.758 0.311484 969.072 0 968.334 0H921.819C920.443 0 919.177 1.07012 918.936 2.43664L914.821 25.7766C914.698 26.4766 915.165 27.1442 915.865 27.2675C915.941 27.2809 916.016 27.2873 916.09 27.2873C916.703 27.2873 917.246 26.8478 917.356 26.2234L921.471 2.88347C921.499 2.72982 921.696 2.57408 921.819 2.57408L968.172 2.57424L964.081 25.7766C963.958 26.4766 964.425 27.1442 965.125 27.2675C965.825 27.3907 966.493 26.9235 966.616 26.2234L966.913 24.5409H982.305C982.306 24.5409 982.306 24.5409 982.307 24.5409C982.307 24.5409 982.308 24.5409 982.309 24.5409C983.372 24.5411 984.292 24.9385 984.897 25.6599C985.314 26.1565 985.557 26.7746 985.615 27.4584H981.34C980.715 27.4584 980.181 27.9069 980.072 28.5221L979.588 31.268C979.393 32.3743 979.669 33.4704 980.344 34.2753C981.01 35.0692 982.021 35.5244 983.117 35.5244H984.329L983.331 41.1878H979.932C979.709 40.0551 979.219 39.0132 978.477 38.1293C977.161 36.5602 975.223 35.6962 973.023 35.6962C969.494 35.6962 966.089 38.0051 964.495 41.188H963.978L965.648 31.7152C965.771 31.0151 965.304 30.3475 964.604 30.2242C963.904 30.1006 963.236 30.5681 963.113 31.2683L961.364 41.1881H937.537C937.313 40.0554 936.823 39.0137 936.081 38.1297C934.765 36.5605 932.828 35.6965 930.627 35.6965C927.098 35.6965 923.693 38.0054 922.099 41.1883L914.717 41.1881L915.232 38.2708H921.016C921.727 38.2708 922.304 37.6945 922.304 36.9836C922.304 36.2728 921.727 35.6964 921.016 35.6964H907.287C906.576 35.6964 906 36.2726 906 36.9836C906 37.6944 906.576 38.2708 907.287 38.2708H912.618L912.158 40.8791C912.027 41.6199 912.217 42.3596 912.677 42.908C913.132 43.451 913.817 43.7625 914.556 43.7625H921.264C920.915 45.946 921.439 48.0029 922.752 49.5669C924.068 51.136 926.005 52 928.206 52C932.587 52 936.778 48.4435 937.549 44.0716C937.567 43.968 937.581 43.8651 937.596 43.7624H963.659C963.31 45.9456 963.835 48.0026 965.147 49.5667C966.464 51.1359 968.401 51.9998 970.602 51.9998C974.983 51.9998 979.174 48.4433 979.945 44.0714C979.963 43.9679 979.977 43.865 979.992 43.7622H984.411C985.036 43.7622 985.57 43.3138 985.679 42.6985L988.099 28.9691C988.428 27.1055 987.991 25.3428 986.869 24.0056ZM967.367 21.9672L968.85 13.5579H980.304L980.923 21.9672H967.367ZM981.847 10.6744L981.792 10.9837H969.304L969.818 8.06615H979.722C980.423 8.06615 981.025 8.32337 981.417 8.79043C981.823 9.27435 981.976 9.94324 981.847 10.6744ZM935.014 43.6249C934.45 46.8237 931.396 49.4259 928.206 49.4259C926.78 49.4259 925.543 48.8884 924.724 47.9125C923.881 46.9082 923.56 45.5444 923.819 44.0721C924.383 40.8733 927.437 38.2711 930.627 38.2711C932.054 38.2711 933.291 38.8087 934.11 39.7847C934.952 40.7887 935.273 42.1526 935.014 43.6249ZM977.409 43.6249C976.845 46.8237 973.792 49.4259 970.602 49.4259C969.175 49.4259 967.938 48.8884 967.119 47.9123C966.277 46.908 965.956 45.5443 966.215 44.0719C966.779 40.8731 969.833 38.2709 973.023 38.2709C974.449 38.2709 975.686 38.8085 976.505 39.7845C977.348 40.7887 977.669 42.1526 977.409 43.6249ZM984.783 32.9508H983.117V32.9507C982.774 32.9507 982.497 32.8367 982.316 32.6212C982.128 32.3974 982.06 32.0758 982.123 31.7156L982.42 30.0335H985.298L984.783 32.9508Z" fill="#AE7C78"/>
<path d="M931.538 42.0428C931.083 41.4998 930.398 41.1883 929.659 41.1883C928.283 41.1883 927.017 42.2584 926.776 43.6249C926.645 44.3658 926.835 45.1054 927.295 45.6539C927.75 46.1969 928.436 46.5084 929.174 46.5084C930.55 46.5084 931.816 45.4381 932.057 44.0719C932.188 43.331 931.999 42.5914 931.538 42.0428Z" fill="#AE7C78"/>
<path d="M973.934 42.0428C973.478 41.4998 972.793 41.1883 972.055 41.1883C970.679 41.1883 969.413 42.2584 969.172 43.6248C969.041 44.3658 969.23 45.1053 969.691 45.6539C970.146 46.1969 970.831 46.5084 971.57 46.5084C972.946 46.5084 974.212 45.4381 974.453 44.0719C974.584 43.331 974.395 42.5914 973.934 42.0428Z" fill="#AE7C78"/>
<path d="M957.921 35.6965H941.611C940.9 35.6965 940.323 36.2728 940.323 36.9837C940.323 37.6945 940.9 38.2709 941.611 38.2709H957.921C958.631 38.2709 959.208 37.6947 959.208 36.9837C959.208 36.2728 958.631 35.6965 957.921 35.6965Z" fill="#AE7C78"/>
<path d="M934.746 30.2048H911.001C910.291 30.2048 909.714 30.781 909.714 31.492C909.714 32.2028 910.29 32.7792 911.001 32.7792H934.746C935.457 32.7792 936.033 32.2029 936.033 31.492C936.033 30.781 935.457 30.2048 934.746 30.2048Z" fill="#AE7C78"/>
<path d="M959.326 25.0263L954.56 20.9075C954.023 20.4429 953.21 20.5018 952.745 21.0397C952.28 21.5775 952.339 22.3903 952.877 22.8552L955.027 24.7132H922.389C921.678 24.7132 921.102 25.2894 921.102 26.0004C921.102 26.7112 921.678 27.2876 922.389 27.2876H954.21L951.555 29.0463C950.963 29.4387 950.801 30.2375 951.193 30.8301C951.441 31.204 951.85 31.4065 952.267 31.4065C952.511 31.4065 952.758 31.3371 952.977 31.1921L959.195 27.0734C959.531 26.8512 959.743 26.4845 959.769 26.0824C959.794 25.6802 959.631 25.2894 959.326 25.0263Z" fill="#AE7C78"/>
</svg>
