<svg width="97" height="20" viewBox="0 0 97 20" fill="none" xmlns="http://www.w3.org/2000/svg">
<path d="M5.84581 0C2.6218 0 0 2.60401 0 5.80437V14.1971C0 17.3974 2.6218 20 5.84581 20H14.3512C17.5752 20 20.197 17.3974 20.197 14.1971V5.80437C20.197 2.60401 17.5752 0 14.3512 0H5.84581ZM5.84581 1.71935H14.3512C16.6458 1.71935 18.4664 3.52664 18.4664 5.80437V14.1971C18.4664 16.4748 16.6458 18.2807 14.3512 18.2807H5.84581C3.55123 18.2807 1.73203 16.4748 1.73203 14.1971V5.80437C1.73203 3.52664 3.55123 1.71935 5.84581 1.71935ZM15.5189 3.43867C14.8499 3.43867 14.3078 3.97676 14.3078 4.64091C14.3078 5.30507 14.8499 5.84315 15.5189 5.84315C16.188 5.84315 16.73 5.30507 16.73 4.64091C16.73 3.97676 16.188 3.43867 15.5189 3.43867ZM10.0985 4.85061C7.24365 4.85061 4.91107 7.16609 4.91107 10C4.91107 12.8339 7.24365 15.1494 10.0985 15.1494C12.9534 15.1494 15.2874 12.8339 15.2874 10C15.2874 7.16609 12.9534 4.85061 10.0985 4.85061ZM10.0985 6.56996C12.0175 6.56996 13.5553 8.09513 13.5553 10C13.5553 11.9049 12.0175 13.43 10.0985 13.43C8.17955 13.43 6.6431 11.9049 6.6431 10C6.6431 8.09513 8.17955 6.56996 10.0985 6.56996Z" fill="#D89999"/>
<path d="M49.4604 0C46.4561 0 44.3987 1.65638 44.3987 4.69933V7.32182H41V10.8784H44.3987V20H48.4613V10.8784H51.8506L52.3596 7.32182H48.4613V5.05071C48.4613 4.02128 48.7783 3.31953 50.4121 3.31953H52.4955V0.139979C52.1352 0.0966486 50.8995 0 49.4604 0Z" fill="#D89999"/>
<path d="M96.7588 2.36717C95.8116 2.76883 94.7929 3.04029 93.7241 3.16259C94.8149 2.53743 95.6525 1.54801 96.0471 0.36927C95.0262 0.948099 93.8956 1.36795 92.6913 1.59426C91.7278 0.613218 90.3544 0 88.8345 0C85.9158 0 83.5503 2.26041 83.5503 5.04887C83.5503 5.44474 83.5966 5.83021 83.687 6.19951C79.295 5.98923 75.4013 3.97853 72.7949 0.924148C72.34 1.66952 72.0794 2.53671 72.0794 3.46218C72.0794 5.21411 73.0119 6.75926 74.4303 7.66504C73.5641 7.63916 72.7491 7.41194 72.0366 7.03349C72.0356 7.05477 72.0356 7.07575 72.0356 7.09687C72.0356 9.54362 73.8574 11.5838 76.2746 12.048C75.8316 12.1634 75.3648 12.2244 74.8828 12.2244C74.542 12.2244 74.2115 12.1936 73.8883 12.1344C74.5612 14.1402 76.5124 15.6002 78.8252 15.641C77.0152 16.9955 74.737 17.8022 72.261 17.8022C71.8347 17.8022 71.4137 17.7783 71 17.7319C73.3396 19.1644 76.1169 20 79.1015 20C88.8212 20 94.1358 12.3067 94.1358 5.63404C94.1358 5.41524 94.1305 5.19793 94.1209 4.9814C95.1529 4.26896 96.0487 3.37993 96.7576 2.36721" fill="#D89999"/>
</svg>
